<?xml version="1.0" standalone="no"?>
<!DOCTYPE svg PUBLIC "-//W3C//DTD SVG 20010904//EN"
 "http://www.w3.org/TR/2001/REC-SVG-20010904/DTD/svg10.dtd">
<svg version="1.0" xmlns="http://www.w3.org/2000/svg"
 width="500.000000pt" height="500.000000pt" viewBox="0 0 500.000000 500.000000"
 preserveAspectRatio="xMidYMid meet">
<metadata>
Created by potrace 1.14, written by Peter Selinger 2001-2017
</metadata>
<g transform="translate(0.000000,500.000000) scale(0.100000,-0.100000)"
fill="#000000" stroke="none">
<path d="M2447 4424 c-1 -1 -45 -4 -97 -8 -218 -14 -504 -90 -695 -184 -93
-46 -279 -162 -358 -225 -258 -202 -469 -482 -590 -782 -65 -161 -104 -296
-123 -425 -3 -19 -7 -40 -9 -47 -7 -22 -18 -178 -18 -263 0 -259 51 -493 166
-765 115 -272 353 -572 599 -756 209 -156 457 -274 708 -339 49 -13 52 -14
125 -25 28 -5 52 -9 55 -10 20 -5 210 -18 275 -18 84 -1 263 11 274 17 3 2 29
6 56 10 28 3 65 10 83 15 18 5 35 10 37 10 27 3 131 35 257 80 204 74 477 255
648 431 141 146 184 202 325 430 86 140 169 385 219 647 20 103 26 320 12 458
-25 263 -144 608 -288 839 -102 163 -234 318 -377 443 -83 72 -115 95 -245
178 -192 121 -472 229 -675 261 -18 3 -42 7 -53 9 -35 7 -305 23 -311 19z
m311 -158 c18 -3 71 -13 117 -22 69 -14 90 -14 114 -4 66 27 160 6 217 -49 12
-11 33 -43 45 -70 21 -43 30 -52 64 -62 142 -40 383 -234 546 -439 48 -61 151
-216 177 -265 37 -72 100 -211 108 -240 1 -5 12 -35 24 -65 22 -58 55 -181 65
-240 3 -19 10 -60 15 -90 5 -30 11 -90 14 -132 l6 -78 -100 0 -100 0 0 73 0
72 -192 0 -193 0 0 -70 0 -70 -62 -3 -63 -3 -1 68 c0 37 -2 116 -5 176 -2 59
-3 107 0 107 2 0 23 -7 46 -15 56 -20 57 -19 55 12 -1 21 -12 33 -60 60 -33
18 -59 37 -58 42 1 5 15 29 31 53 41 61 56 107 44 138 -9 24 -12 21 -61 -55
-28 -44 -51 -86 -51 -92 0 -16 -17 -16 -57 -2 -17 5 -55 9 -84 7 l-54 -3 36
-28 c33 -24 67 -35 134 -40 19 -2 20 -9 18 -127 -1 -69 -2 -164 -2 -212 l-1
-88 -33 0 c-32 0 -33 -2 -35 -40 l-3 -40 426 0 425 0 -4 -27 c-2 -16 -7 -59
-11 -98 -12 -131 -80 -411 -106 -439 -5 -6 -9 -18 -9 -28 0 -10 -3 -18 -7 -19
-33 -5 -285 -3 -288 2 -3 3 2 15 10 25 12 17 28 19 145 20 72 1 133 3 135 6 2
2 5 82 6 178 l2 175 -491 3 -491 2 0 -180 c0 -163 2 -180 17 -181 9 -1 63 -2
119 -3 92 -1 105 -3 125 -23 12 -13 18 -23 13 -24 -6 -1 -79 -2 -164 -3 -119
-2 -157 1 -167 12 -11 10 -14 50 -14 167 0 162 -1 166 -47 157 -23 -4 -23 -5
-23 -182 0 -160 2 -180 19 -201 l19 -24 512 -2 c281 -1 513 -3 515 -5 2 -2 -4
-19 -13 -38 l-17 -35 -350 -1 c-193 -1 -352 -2 -354 -3 -7 -2 32 -56 48 -66
22 -13 2 -12 316 -14 183 -1 285 -5 285 -11 0 -13 -85 -136 -118 -172 -26 -28
-26 -28 -164 -28 -150 0 -163 -5 -140 -54 10 -22 16 -23 91 -22 130 2 131 1
55 -74 -36 -36 -73 -72 -82 -80 -9 -8 -30 -26 -45 -40 l-29 -25 -406 0 -406 0
-4 -41 c-3 -33 0 -42 15 -45 10 -2 163 -4 341 -3 177 0 322 -1 322 -2 0 -2
-21 -16 -47 -31 l-48 -28 -222 0 c-122 -1 -225 -4 -229 -8 -4 -3 5 -24 19 -45
l25 -39 87 1 c48 1 89 -2 91 -5 2 -4 -37 -23 -86 -43 l-90 -36 -435 0 -436 0
-79 31 c-75 28 -105 47 -81 50 6 1 16 3 21 4 6 1 18 3 28 4 37 3 46 17 32 50
l-12 31 -154 0 c-135 0 -160 3 -199 21 -92 43 -83 46 188 47 138 0 261 1 273
1 17 1 21 7 20 41 0 22 -5 41 -11 41 -5 1 -159 2 -341 3 -277 1 -334 4 -350
16 -44 36 -64 54 -64 59 0 5 800 7 835 2 6 0 10 -33 9 -76 0 -48 3 -75 10 -76
6 -1 25 -2 41 -3 27 -1 30 -5 33 -38 l3 -37 -61 0 c-51 1 -66 -3 -86 -22 -14
-13 -24 -34 -24 -49 l0 -27 145 -2 145 -1 0 88 0 89 63 -1 62 -1 5 -86 5 -86
148 -1 147 -1 0 28 c0 16 -10 37 -23 49 -20 19 -36 23 -95 23 l-72 1 0 39 c0
37 1 38 30 35 l30 -3 0 398 c0 448 4 428 -70 331 -50 -66 -303 -316 -366 -363
-58 -43 -72 -62 -69 -97 1 -12 -3 -22 -9 -23 -47 -5 -87 -4 -95 1 -6 3 -9 37
-8 75 2 67 3 70 28 73 26 3 26 4 23 74 l-3 71 -61 61 -61 61 -199 0 -198 0
-43 -43 c-39 -38 -48 -42 -91 -42 -43 0 -50 3 -58 26 -6 14 -10 39 -10 55 0
28 -2 30 -32 27 -31 -3 -33 -5 -36 -48 -4 -71 43 -132 110 -144 42 -7 48 -14
48 -57 0 -35 3 -39 25 -40 14 -1 31 -2 38 -3 14 -1 25 -87 17 -125 l-6 -24
-163 1 c-154 0 -164 1 -187 23 -13 12 -21 25 -19 29 2 3 50 6 107 5 57 -1 108
2 114 7 12 9 7 55 -7 64 -4 2 -71 5 -148 6 -134 1 -141 3 -161 25 -11 13 -20
28 -20 33 0 6 42 10 104 10 114 0 132 8 120 54 l-6 26 -143 0 c-142 0 -143 0
-160 26 -9 14 -14 28 -12 31 3 3 42 5 87 4 75 -1 81 1 89 22 5 12 5 31 1 42
-7 18 -17 20 -111 21 -57 1 -109 2 -116 3 -6 0 -20 17 -32 36 l-20 35 27 1
c15 0 226 1 470 1 399 1 442 2 443 17 0 9 2 24 4 34 4 19 9 18 -132 19 l-98 1
-5 125 c-5 120 -6 125 -32 147 -34 29 -90 27 -122 -4 -18 -19 -22 -36 -26
-144 l-5 -122 -87 -1 c-49 -1 -89 1 -90 5 0 3 -2 84 -3 179 l-2 172 26 6 c67
15 92 28 130 69 62 67 72 102 74 243 1 68 0 125 -4 128 -3 2 -30 -11 -60 -29
-105 -64 -97 -54 -96 -123 l1 -62 26 17 c54 37 53 38 47 -17 -6 -59 -27 -94
-71 -121 -75 -45 -72 -51 -73 135 -1 181 -6 205 -54 224 -35 15 -67 8 -97 -20
-21 -20 -22 -28 -22 -196 l0 -175 -22 7 c-71 22 -118 101 -109 183 1 11 6 10
26 -3 41 -27 45 -21 42 56 l-2 72 -118 62 c-66 33 -123 67 -128 75 -25 39 -34
39 663 41 l673 3 1 32 c1 31 -17 50 -37 38 -5 -3 -17 -2 -26 4 -15 8 -152 143
-271 269 -17 17 -34 32 -38 32 -8 0 -98 -92 -211 -216 -80 -88 -83 -90 -127
-90 -55 0 -55 -1 50 113 43 47 80 89 82 93 1 4 -70 82 -159 173 l-162 167 -96
-101 c-53 -56 -97 -105 -99 -109 -2 -4 34 -46 80 -93 95 -98 212 -225 216
-236 1 -4 -18 -7 -42 -7 -43 1 -48 5 -125 86 -44 47 -121 128 -170 180 -77 81
-90 99 -85 120 3 14 9 29 14 35 5 6 29 50 53 98 45 87 146 237 209 311 159
188 383 364 568 446 41 19 82 39 90 46 42 33 343 118 465 131 28 3 51 7 53 8
6 5 427 -3 460 -9z m-1948 -1721 l30 -15 -7 -88 c-5 -75 -3 -95 14 -133 33
-73 115 -139 174 -139 16 0 19 -8 19 -46 0 -45 -1 -46 -27 -39 -91 22 -183 94
-220 174 -22 48 -26 71 -27 161 -2 101 1 140 11 140 2 0 17 -7 33 -15z m2669
-505 l-2 -49 -76 2 -76 2 -1 40 c-1 22 0 42 2 45 1 3 37 7 79 7 l75 2 -1 -49z
m504 13 c-1 -21 -2 -43 -2 -49 -1 -8 -27 -12 -76 -12 l-75 0 0 49 0 49 78 0
77 0 -2 -37z m-2282 -673 c1 -8 1 -103 0 -125 -1 -15 -8 -20 -31 -20 -16 -1
-31 4 -31 10 -3 20 -5 130 -3 135 3 7 64 7 65 0z m143 -9 c2 -9 3 -43 3 -76
-2 -60 -2 -60 -32 -60 -30 0 -30 0 -33 64 -2 35 -1 69 2 76 7 19 55 15 60 -4z
m137 2 c1 -17 1 -86 0 -116 -1 -20 -6 -24 -28 -22 -27 1 -28 3 -31 64 -2 35
-1 70 2 76 6 17 56 14 57 -2z m313 -199 c3 -96 0 -104 -30 -104 -24 0 -24 2
-24 94 0 82 2 95 18 99 28 6 34 -7 36 -89z"/>
<path d="M3005 4176 c-16 -8 -40 -23 -51 -34 -19 -18 -32 -20 -92 -18 -84 4
-155 -17 -209 -61 -47 -38 -83 -135 -77 -208 3 -47 30 -124 43 -126 24 -4 174
-3 180 1 4 3 12 24 19 46 25 85 120 146 230 147 59 0 70 4 92 27 14 15 38 35
53 44 26 16 28 21 22 54 -9 53 -44 99 -91 122 -47 23 -77 25 -119 6z m-265
-188 c0 -6 -9 -22 -20 -38 -10 -15 -22 -46 -26 -69 -6 -35 -10 -42 -28 -39
-43 6 -28 96 27 155 15 17 23 20 34 12 7 -6 13 -16 13 -21z"/>
<path d="M2490 4151 c0 -22 5 -30 24 -33 32 -6 42 1 48 35 5 26 3 27 -33 27
-36 0 -39 -2 -39 -29z"/>
<path d="M1957 4112 l-78 -3 4 -31 3 -31 89 -1 c95 -1 132 13 120 46 -8 20
-37 24 -138 20z"/>
<path d="M2172 4112 c-19 -3 -23 -9 -20 -30 3 -25 7 -27 51 -30 36 -2 47 0 47
12 0 8 3 21 6 29 6 16 -38 25 -84 19z"/>
<path d="M2342 4083 c3 -31 33 -43 83 -33 24 5 30 11 30 30 0 23 -4 25 -58 28
l-58 3 3 -28z"/>
<path d="M3249 3952 c-27 -13 -65 -47 -77 -69 -11 -20 -20 -22 -97 -22 -136 0
-196 -45 -212 -161 -3 -19 -9 -37 -13 -40 -5 -3 -65 -5 -134 -4 -69 0 -126 -2
-126 -6 0 -3 6 -15 14 -25 10 -14 29 -20 75 -22 36 -2 61 1 61 7 0 7 120 10
335 10 l335 -1 0 -39 0 -40 110 0 110 0 0 51 c0 57 -10 81 -53 127 -20 21 -45
35 -68 38 -34 6 -37 10 -43 45 -15 94 -70 149 -154 155 -26 2 -54 0 -63 -4z"/>
<path d="M1674 3920 c-1 -16 1 -31 5 -31 44 -8 71 -4 72 10 0 9 2 24 4 34 3
14 -4 17 -38 17 -40 0 -42 -2 -43 -30z"/>
<path d="M1930 3910 c-9 -6 -7 -41 4 -58 3 -5 15 -8 28 -6 13 1 27 3 31 3 5 1
7 15 5 33 -3 27 -7 32 -31 33 -15 0 -32 -2 -37 -5z"/>
<path d="M2157 3912 c-12 -3 -16 -12 -14 -35 l2 -32 72 -3 c81 -3 108 11 94
51 -7 19 -15 22 -73 22 -35 0 -72 -1 -81 -3z"/>
<path d="M2390 3880 l0 -36 48 -3 c47 -2 48 -1 48 28 -1 38 -9 45 -57 47 -39
1 -39 1 -39 -36z"/>
<path d="M1393 3773 c-18 -7 -16 -38 4 -54 9 -8 19 -12 22 -11 3 2 13 8 23 13
9 5 15 17 13 26 -2 10 -4 21 -4 24 -1 7 -40 8 -58 2z"/>
<path d="M1695 3761 c-71 -18 -145 -76 -180 -142 -24 -44 -33 -131 -20 -183
19 -74 78 -151 140 -181 60 -30 144 -36 213 -15 47 15 51 24 21 56 -18 19 -25
21 -51 12 -77 -27 -188 17 -232 91 -23 39 -29 131 -12 172 41 96 169 146 268
105 101 -43 147 -171 96 -272 -13 -28 -13 -30 13 -52 l27 -22 27 56 c49 104
25 226 -61 309 -64 63 -158 88 -249 66z"/>
<path d="M2100 3713 c0 -22 5 -33 15 -34 8 0 83 -1 165 -1 83 0 156 1 164 1
12 1 18 59 6 62 -3 1 -83 2 -177 3 l-173 2 0 -33z"/>
<path d="M1702 3620 c-50 -23 -88 -92 -78 -145 9 -46 65 -102 111 -111 86 -16
177 71 161 153 -18 90 -112 140 -194 103z"/>
<path d="M3720 3598 c0 -7 -3 -23 -6 -35 -6 -21 -3 -23 39 -23 44 0 45 1 49
35 l4 35 -43 0 c-28 0 -43 -4 -43 -12z"/>
<path d="M2803 3562 c-31 -5 -37 -31 -9 -43 19 -9 23 -17 20 -50 -3 -43 6 -54
36 -44 13 4 20 15 20 31 0 22 3 24 28 18 15 -4 29 -9 32 -11 2 -2 5 -42 5 -88
1 -69 -2 -86 -14 -89 -28 -8 -180 -37 -201 -39 -11 -1 -33 -14 -48 -30 -17
-18 -22 -28 -12 -27 32 5 37 -1 36 -50 -1 -28 3 -50 9 -51 5 0 20 -2 33 -3 23
-3 26 5 22 72 -2 36 -10 33 118 35 l57 1 -1 -45 c0 -24 -3 -66 -7 -94 -8 -68
-37 -284 -42 -315 -2 -14 -6 -52 -10 -85 -3 -33 -8 -69 -10 -80 -2 -11 -4 -30
-4 -42 -1 -20 -6 -23 -41 -23 -44 0 -47 -7 -25 -51 l16 -29 266 2 266 3 2 25
c4 43 -4 50 -55 50 -54 0 -55 1 -64 105 -3 28 -8 79 -11 115 -3 36 -8 72 -10
80 -2 8 -6 33 -9 55 -19 150 -27 207 -32 255 -4 30 -8 58 -10 61 -8 14 34 16
172 10 19 -1 22 -7 22 -48 1 -25 6 -50 13 -53 18 -11 49 1 50 19 0 9 1 32 2
51 2 27 6 34 20 32 9 -2 17 1 17 6 0 12 -38 45 -53 48 -67 10 -211 36 -222 40
-10 4 -14 28 -14 88 -1 79 1 83 25 94 33 16 31 17 38 -19 5 -25 10 -30 28 -27
19 2 24 11 28 46 4 33 12 47 33 61 21 13 25 21 16 26 -12 8 -479 14 -526 7z
m285 -193 l3 -85 -41 -2 c-22 -2 -40 2 -41 8 0 5 -1 37 -1 70 0 107 -2 101 40
97 l37 -2 3 -86z m24 -337 c3 -25 -3 -46 -23 -77 -15 -23 -32 -45 -37 -49 -14
-8 -72 85 -67 109 2 11 4 28 4 37 1 9 7 23 14 30 8 7 20 24 27 38 l13 24 33
-39 c18 -22 34 -54 36 -73z m-128 -190 c15 -18 15 -20 -3 -40 -23 -28 -28 -28
-25 1 1 12 3 30 3 40 1 21 4 21 25 -1z m158 -21 c3 -34 1 -38 -13 -30 -26 13
-32 40 -12 55 10 7 19 14 19 14 1 0 4 -18 6 -39z m-51 -113 c21 -24 39 -46 39
-51 0 -4 -19 -28 -42 -53 -38 -41 -43 -44 -54 -29 -7 10 -27 32 -43 51 l-31
33 38 45 c20 25 41 45 45 45 5 1 26 -18 48 -41z m-125 -173 l25 -25 -36 0
c-35 0 -40 5 -29 34 8 21 11 20 40 -9z m207 3 c8 -28 5 -30 -28 -26 -26 3 -26
3 -8 25 23 28 29 29 36 1z"/>
<path d="M1120 3503 l0 -38 103 1 c56 1 107 2 112 3 6 0 11 17 12 36 l2 35
-115 0 -114 0 0 -37z"/>
<path d="M2140 3530 c-8 -5 -10 -19 -5 -39 6 -29 9 -31 51 -31 l45 0 -3 38
c-3 35 -5 37 -40 38 -20 1 -42 -2 -48 -6z"/>
<path d="M2518 3503 c-5 -41 -3 -43 42 -43 34 0 38 3 44 32 8 39 5 42 -43 43
-37 1 -39 -1 -43 -32z"/>
<path d="M3359 3458 c0 -7 -2 -21 -4 -30 -3 -16 7 -18 94 -18 l98 0 -2 28 -1
27 -92 3 c-70 2 -92 0 -93 -10z"/>
<path d="M3610 3440 c0 -30 0 -30 60 -30 33 0 63 -1 68 -2 4 -2 8 11 10 28 l3
32 -70 1 -71 1 0 -30z"/>
<path d="M2305 3346 c-82 -37 -115 -99 -115 -214 0 -100 12 -118 83 -121 12
-1 17 -10 17 -34 0 -22 7 -39 23 -51 12 -10 45 -41 73 -68 l50 -49 48 42 47
41 -33 24 c-39 29 -44 37 -43 68 0 17 11 32 35 48 104 69 101 226 -6 297 -44
30 -133 39 -179 17z"/>
<path d="M1375 3310 c-4 -7 1 -50 7 -55 4 -4 31 -8 51 -6 12 1 17 10 17 31 0
17 -3 31 -7 32 -26 5 -64 4 -68 -2z"/>
<path d="M2060 3277 c0 -31 2 -33 33 -32 28 1 32 5 35 33 3 31 2 32 -32 32
-34 0 -36 -2 -36 -33z"/>
<path d="M3689 3296 c-1 -1 -3 -20 -4 -43 l-2 -42 153 1 c85 0 154 4 154 7 0
3 -5 22 -10 42 l-10 37 -140 -1 c-77 0 -141 -1 -141 -1z"/>
<path d="M3689 3135 c-1 0 -2 -19 -3 -42 l-2 -43 163 0 163 0 -6 28 c-3 15 -8
34 -10 43 -3 13 -27 15 -154 15 -83 0 -151 0 -151 -1z"/>
<path d="M1996 3001 c1 -14 3 -31 3 -37 1 -7 14 -9 38 -5 38 6 40 10 34 61 0
5 -18 9 -39 8 -34 -1 -37 -4 -36 -27z"/>
<path d="M3750 2966 c0 -6 15 -20 33 -29 28 -15 58 -18 170 -19 132 0 138 1
157 23 10 13 19 27 20 30 0 3 -85 6 -190 6 -136 0 -190 -3 -190 -11z"/>
<path d="M2202 2879 c-52 -34 -62 -62 -76 -209 -10 -99 -16 -154 -26 -225 -6
-38 -13 -92 -16 -120 -9 -74 -20 -154 -30 -220 -2 -17 -6 -85 -9 -152 l-4
-123 38 0 37 0 0 83 c0 75 31 216 52 239 4 4 7 -44 6 -107 l0 -115 51 53 c76
77 150 175 258 342 152 234 207 330 202 356 -2 13 -7 47 -10 74 -4 39 -12 56
-35 78 -17 15 -35 27 -40 27 -10 0 -76 -56 -121 -102 -15 -16 -31 -28 -36 -28
-5 0 -29 19 -54 43 -72 66 -142 127 -148 127 -3 0 -21 -10 -39 -21z"/>
<path d="M3250 2843 c0 -32 1 -33 40 -33 39 0 40 1 40 33 0 33 -1 34 -40 34
-39 0 -40 -1 -40 -34z"/>
<path d="M3703 2823 c-8 -3 -13 -23 -13 -49 l0 -44 75 0 75 0 0 44 c0 31 -5
46 -16 50 -18 7 -103 7 -121 -1z"/>
<path d="M3922 2813 c-5 -10 -9 -31 -8 -48 l2 -30 71 -3 71 -3 4 30 c8 58 -5
71 -71 71 -47 0 -62 -4 -69 -17z"/>
<path d="M1663 2635 c-17 -7 -39 -25 -48 -39 -14 -21 -25 -26 -56 -26 -37 0
-39 -2 -39 -30 0 -16 3 -30 8 -31 4 0 21 -2 38 -2 20 -1 42 -13 63 -34 32 -32
48 -37 101 -33 43 3 90 64 84 108 -1 6 -2 19 -3 27 -1 14 -45 64 -59 66 -41 7
-62 5 -89 -6z"/>
<path d="M1882 2549 l0 -39 54 0 54 0 0 39 0 39 -54 0 -55 0 1 -39z"/>
<path d="M2649 2469 c-160 -259 -267 -409 -382 -533 l-92 -99 0 -224 c0 -122
1 -223 4 -223 26 0 346 319 455 453 l47 58 -3 99 c-2 55 0 96 3 92 17 -19 33
-94 35 -162 2 -41 3 -81 3 -87 1 -8 15 -13 36 -13 l35 0 0 85 c0 46 -11 153
-25 237 -14 84 -28 169 -31 188 -2 19 -7 46 -9 60 -3 14 -7 48 -11 75 -3 28
-9 54 -13 58 -4 4 -28 -24 -52 -64z"/>
<path d="M1636 2385 c-6 -17 30 -55 53 -56 9 0 23 -2 31 -4 62 -12 79 -12 84
2 12 30 5 41 -36 52 -76 20 -125 22 -132 6z"/>
<path d="M2875 2273 c2 -54 4 -142 5 -195 2 -54 5 -98 9 -98 3 1 17 7 30 14
23 13 25 19 23 85 l-2 72 43 39 c23 21 50 52 59 68 l17 29 -47 -3 c-42 -2 -49
1 -63 24 -9 15 -30 35 -47 45 l-31 17 4 -97z"/>
<path d="M3222 2360 c-6 -5 -7 -21 -3 -60 1 -13 55 -15 424 -14 232 1 428 2
435 3 13 1 18 70 5 72 -25 4 -856 3 -861 -1z"/>
<path d="M1884 2295 c3 -22 5 -40 5 -41 1 0 22 0 49 1 47 0 47 0 50 38 3 40 5
39 -66 41 l-42 1 4 -40z"/>
<path d="M1639 2251 c-4 -24 -4 -71 1 -72 3 0 33 -2 67 -5 34 -2 66 -4 70 -5
40 -7 47 42 10 66 -22 14 -146 28 -148 16z"/>
<path d="M1670 2042 l0 -48 63 2 c34 1 65 2 70 3 4 0 7 14 7 30 0 38 -36 61
-95 61 l-45 0 0 -48z"/>
<path d="M1880 2031 c0 -37 0 -37 43 -36 41 1 42 2 45 36 l3 36 -45 0 -46 0 0
-36z"/>
<path d="M2909 1907 l-26 -10 -1 -153 c-1 -162 2 -170 43 -140 17 12 18 28 17
161 -1 81 -3 149 -4 150 -2 1 -15 -3 -29 -8z"/>
<path d="M3027 1608 c-25 -24 -58 -53 -73 -65 -16 -12 -50 -41 -75 -65 l-46
-43 1 -88 c1 -49 -2 -94 -6 -100 -4 -6 -19 -12 -35 -13 -15 -1 -31 -2 -35 -3
-10 -1 -10 -53 0 -66 4 -7 144 -10 405 -10 l399 0 24 30 c38 47 32 53 -48 50
-40 -1 -78 2 -83 6 -6 4 -10 48 -9 104 l1 96 -69 62 c-39 34 -91 81 -116 104
-46 41 -49 42 -119 43 -70 0 -72 -1 -116 -42z m-66 -240 c2 -74 0 -120 -5
-125 -8 -9 -46 -11 -47 -4 -1 3 -2 39 -3 79 l-2 72 28 0 c22 0 28 -5 29 -22z
m140 15 c1 -5 2 -36 3 -71 2 -67 -8 -83 -47 -76 -29 4 -32 11 -34 85 l-1 69
39 0 c21 0 40 -3 40 -7z m150 -20 c1 -40 -2 -117 -6 -121 -6 -7 -47 -11 -60
-5 -11 4 -15 24 -15 79 l0 74 40 0 c37 0 40 -2 41 -27z m129 -51 l0 -79 -27 2
c-28 1 -28 2 -31 78 l-3 77 31 0 30 0 0 -78z"/>
<path d="M3544 1496 c-8 -20 12 -53 33 -58 15 -3 205 -3 238 1 12 1 35 57 27
65 -3 3 -70 6 -149 6 -115 0 -145 -3 -149 -14z"/>
</g>
</svg>
